<mxfile host="app.diagrams.net" modified="2022-01-06T11:26:40.450Z" agent="5.0 (Windows)" etag="E9HXOAfcGYDh2naj-t-f" version="16.2.2" type="github">
  <diagram id="C5RBs43oDa-KdzZeNtuy" name="Page-1">
    <mxGraphModel dx="1422" dy="803" grid="1" gridSize="10" guides="1" tooltips="1" connect="1" arrows="1" fold="1" page="1" pageScale="1" pageWidth="827" pageHeight="1169" math="0" shadow="0">
      <root>
        <mxCell id="WIyWlLk6GJQsqaUBKTNV-0" />
        <mxCell id="WIyWlLk6GJQsqaUBKTNV-1" parent="WIyWlLk6GJQsqaUBKTNV-0" />
        <mxCell id="WIyWlLk6GJQsqaUBKTNV-2" value="" style="rounded=0;html=1;jettySize=auto;orthogonalLoop=1;fontSize=11;endArrow=block;endFill=0;endSize=8;strokeWidth=1;shadow=0;labelBackgroundColor=none;edgeStyle=orthogonalEdgeStyle;entryX=0.5;entryY=0;entryDx=0;entryDy=0;" parent="WIyWlLk6GJQsqaUBKTNV-1" source="WIyWlLk6GJQsqaUBKTNV-3" target="X7YcFP9HfGFfu3jXwkdN-0" edge="1">
          <mxGeometry relative="1" as="geometry" />
        </mxCell>
        <mxCell id="WIyWlLk6GJQsqaUBKTNV-3" value="GET page=&#39;webshop&#39;" style="rounded=1;whiteSpace=wrap;html=1;fontSize=12;glass=0;strokeWidth=1;shadow=0;" parent="WIyWlLk6GJQsqaUBKTNV-1" vertex="1">
          <mxGeometry x="160" y="80" width="180" height="40" as="geometry" />
        </mxCell>
        <mxCell id="X7YcFP9HfGFfu3jXwkdN-0" value="processRequest(&#39;webshop&#39;)" style="rounded=0;whiteSpace=wrap;html=1;" parent="WIyWlLk6GJQsqaUBKTNV-1" vertex="1">
          <mxGeometry x="165" y="150" width="170" height="60" as="geometry" />
        </mxCell>
        <mxCell id="jyO9d3wJ_w2OSAcadYdU-7" value="" style="edgeStyle=orthogonalEdgeStyle;rounded=0;orthogonalLoop=1;jettySize=auto;html=1;" edge="1" parent="WIyWlLk6GJQsqaUBKTNV-1" source="X7YcFP9HfGFfu3jXwkdN-3" target="jyO9d3wJ_w2OSAcadYdU-6">
          <mxGeometry relative="1" as="geometry" />
        </mxCell>
        <mxCell id="X7YcFP9HfGFfu3jXwkdN-3" value="&lt;div&gt;$data[&#39;productList&#39;] = &lt;br&gt;&lt;/div&gt;&lt;div&gt;loadProductList()&lt;br&gt;&lt;/div&gt;" style="rounded=0;whiteSpace=wrap;html=1;" parent="WIyWlLk6GJQsqaUBKTNV-1" vertex="1">
          <mxGeometry x="510" y="155" width="150" height="50" as="geometry" />
        </mxCell>
        <mxCell id="jyO9d3wJ_w2OSAcadYdU-5" value="" style="shape=flexArrow;endArrow=classic;html=1;rounded=0;" edge="1" parent="WIyWlLk6GJQsqaUBKTNV-1">
          <mxGeometry width="50" height="50" relative="1" as="geometry">
            <mxPoint x="340" y="180" as="sourcePoint" />
            <mxPoint x="500" y="180" as="targetPoint" />
          </mxGeometry>
        </mxCell>
        <mxCell id="jyO9d3wJ_w2OSAcadYdU-6" value="&lt;div&gt;$data[&#39;page&#39;] = &#39;webshop&#39;&lt;br&gt;&lt;/div&gt;" style="whiteSpace=wrap;html=1;rounded=0;" vertex="1" parent="WIyWlLk6GJQsqaUBKTNV-1">
          <mxGeometry x="525" y="230" width="120" height="60" as="geometry" />
        </mxCell>
        <mxCell id="jyO9d3wJ_w2OSAcadYdU-10" value="" style="shape=flexArrow;endArrow=classic;html=1;rounded=0;" edge="1" parent="WIyWlLk6GJQsqaUBKTNV-1">
          <mxGeometry width="50" height="50" relative="1" as="geometry">
            <mxPoint x="510" y="260" as="sourcePoint" />
            <mxPoint x="340" y="260" as="targetPoint" />
          </mxGeometry>
        </mxCell>
        <mxCell id="jyO9d3wJ_w2OSAcadYdU-11" value="Step into" style="text;html=1;align=center;verticalAlign=middle;resizable=0;points=[];autosize=1;strokeColor=none;fillColor=none;" vertex="1" parent="WIyWlLk6GJQsqaUBKTNV-1">
          <mxGeometry x="370" y="150" width="60" height="20" as="geometry" />
        </mxCell>
        <mxCell id="jyO9d3wJ_w2OSAcadYdU-12" value="Return $data" style="text;html=1;align=center;verticalAlign=middle;resizable=0;points=[];autosize=1;strokeColor=none;fillColor=none;" vertex="1" parent="WIyWlLk6GJQsqaUBKTNV-1">
          <mxGeometry x="385" y="230" width="90" height="20" as="geometry" />
        </mxCell>
        <mxCell id="jyO9d3wJ_w2OSAcadYdU-15" value="" style="edgeStyle=orthogonalEdgeStyle;rounded=0;orthogonalLoop=1;jettySize=auto;html=1;" edge="1" parent="WIyWlLk6GJQsqaUBKTNV-1" source="jyO9d3wJ_w2OSAcadYdU-13" target="jyO9d3wJ_w2OSAcadYdU-14">
          <mxGeometry relative="1" as="geometry" />
        </mxCell>
        <mxCell id="jyO9d3wJ_w2OSAcadYdU-13" value="showResponsePage($data)" style="whiteSpace=wrap;html=1;" vertex="1" parent="WIyWlLk6GJQsqaUBKTNV-1">
          <mxGeometry x="160" y="230" width="180" height="30" as="geometry" />
        </mxCell>
        <mxCell id="jyO9d3wJ_w2OSAcadYdU-17" value="" style="edgeStyle=orthogonalEdgeStyle;rounded=0;orthogonalLoop=1;jettySize=auto;html=1;" edge="1" parent="WIyWlLk6GJQsqaUBKTNV-1" source="jyO9d3wJ_w2OSAcadYdU-14" target="jyO9d3wJ_w2OSAcadYdU-16">
          <mxGeometry relative="1" as="geometry" />
        </mxCell>
        <mxCell id="jyO9d3wJ_w2OSAcadYdU-14" value="ShowContent($data)" style="whiteSpace=wrap;html=1;" vertex="1" parent="WIyWlLk6GJQsqaUBKTNV-1">
          <mxGeometry x="160" y="310" width="180" height="30" as="geometry" />
        </mxCell>
        <mxCell id="jyO9d3wJ_w2OSAcadYdU-16" value="ShowWebShopContent($data[&#39;productList&#39;])" style="whiteSpace=wrap;html=1;" vertex="1" parent="WIyWlLk6GJQsqaUBKTNV-1">
          <mxGeometry x="120" y="380" width="260" height="55" as="geometry" />
        </mxCell>
      </root>
    </mxGraphModel>
  </diagram>
</mxfile>
